<svg width="55" height="30" fill="none" xmlns="http://www.w3.org/2000/svg"><path d="M55 14.698c0 1.93-.699 3.842-2.057 5.625s-3.349 3.404-5.859 4.769c-2.51 1.364-5.489 2.447-8.767 3.186-3.28.739-6.794 1.119-10.343 1.119-3.549 0-7.063-.38-10.342-1.12-3.28-.738-6.259-1.82-8.768-3.185-2.51-1.365-4.5-2.986-5.859-4.769C1.647 18.54.948 16.628.948 14.698H55zM1.423 6.37h.554V3.39h1.28v-.496H.143v.497h1.28v2.98zm2.311 0h.554V4.88h2.455v-.496H4.288V3.39h2.493v-.497H3.725V4.88l.01 1.49zm8.204 7.134c2.727 0 5.027-2.273 5.027-5h-5.027v1.39h3.182c-.508 1.284-1.711 2.193-3.182 2.193-1.98 0-3.45-1.605-3.45-3.584s1.47-3.584 3.45-3.584c1.016 0 1.872.402 2.487 1.07l1.07-1.07c-.883-.855-2.086-1.417-3.557-1.417-2.755 0-5.055 2.247-5.055 5.001 0 2.969 2.086 5.001 5.055 5.001zm8.773 0c.696 0 1.31-.24 1.659-.615v.482h1.47v-2.782c0-1.738-1.257-2.915-2.995-2.915-1.605 0-2.995 1.31-2.995 2.915 0 1.739 1.176 2.915 2.861 2.915zm.134-1.39c-.856 0-1.498-.669-1.498-1.525 0-.882.642-1.524 1.498-1.524.883 0 1.498.642 1.498 1.524 0 .856-.615 1.525-1.498 1.525zm4.441 1.257h1.498V9.894c0-.428.294-.695.695-.695h.428V7.808h-.535c-1.203 0-2.086.856-2.086 2.086v3.477zm6.58.133c1.605 0 2.996-1.31 2.996-2.915V3.636h-1.498v4.52c-.481-.348-1.016-.482-1.578-.482-1.578 0-2.915 1.31-2.915 2.915 0 1.739 1.257 2.915 2.996 2.915zm0-1.39c-.855 0-1.497-.669-1.497-1.525 0-.882.642-1.524 1.498-1.524.882 0 1.497.642 1.497 1.524 0 .856-.615 1.525-1.497 1.525zm7.327 1.39a2.89 2.89 0 002.059-.855l-.91-.936c-.4.374-.668.508-1.15.508-.748 0-1.337-.455-1.524-1.124h4.52v-.508c-.107-1.818-1.257-2.915-2.995-2.915-1.605 0-2.996 1.31-2.996 2.915 0 1.739 1.257 2.915 2.995 2.915zm-1.498-3.557c.214-.615.749-1.07 1.498-1.07.775 0 1.31.428 1.524 1.07h-3.022zm5.69 3.424h1.498v-2.782c0-.882.642-1.524 1.498-1.524.883 0 1.498.642 1.498 1.524v2.782h1.497v-2.782c0-1.738-1.23-2.915-2.968-2.915-1.525 0-3.022 1.177-3.022 2.915v2.782z" fill="#fff"/><path d="M11.237 26.172h5.723c1.658 0 2.782-1.337 2.782-2.781 0-1.605-1.124-2.781-2.782-2.781h-2.942c-.829 0-1.39-.562-1.39-1.391 0-.83.561-1.39 1.39-1.39h4.895v-1.392h-5.055c-1.658 0-2.782 1.31-2.782 2.782 0 1.604 1.124 2.781 2.782 2.781H16.8c.829 0 1.39.562 1.39 1.391s-.561 1.39-1.39 1.39h-5.563v1.391zm12.404.134c.696 0 1.31-.24 1.659-.615v.481h1.47v-2.781c0-1.738-1.257-2.915-2.995-2.915-1.605 0-2.995 1.31-2.995 2.915 0 1.738 1.176 2.915 2.861 2.915zm.134-1.39c-.856 0-1.498-.67-1.498-1.525 0-.883.642-1.524 1.498-1.524.883 0 1.498.641 1.498 1.524 0 .856-.615 1.524-1.498 1.524zm4.756 1.256h1.498v-9.735H28.53v9.735zm5.858.134c.695 0 1.31-.24 1.658-.615v.481h1.47v-2.781c0-1.738-1.256-2.915-2.995-2.915-1.604 0-2.995 1.31-2.995 2.915 0 1.738 1.177 2.915 2.862 2.915zm.133-1.39c-.855 0-1.497-.67-1.497-1.525 0-.883.642-1.524 1.497-1.524.883 0 1.498.641 1.498 1.524 0 .856-.615 1.524-1.498 1.524zm7.17 1.39c1.604 0 2.995-1.31 2.995-2.915v-6.953h-1.498v4.52c-.481-.348-1.016-.482-1.578-.482-1.578 0-2.915 1.31-2.915 2.915 0 1.738 1.257 2.915 2.996 2.915zm0-1.39c-.856 0-1.498-.67-1.498-1.525 0-.883.642-1.524 1.498-1.524.882 0 1.497.641 1.497 1.524 0 .856-.615 1.524-1.497 1.524z" fill="#159741"/></svg>