<svg width="55" height="30" viewBox="0 0 55 30" fill="none" xmlns="http://www.w3.org/2000/svg">
<path d="M55.0001 14.6983C55.0001 16.6285 54.3011 18.5398 52.9429 20.3231C51.5847 22.1064 49.594 23.7267 47.0844 25.0916C44.5748 26.4565 41.5955 27.5391 38.3166 28.2778C35.0376 29.0165 31.5233 29.3966 27.9742 29.3966C24.4251 29.3966 20.9107 29.0165 17.6318 28.2778C14.3529 27.5391 11.3735 26.4565 8.86396 25.0916C6.35437 23.7267 4.36365 22.1064 3.00547 20.3231C1.64729 18.5398 0.948242 16.6285 0.948242 14.6983L27.9742 14.6983H55.0001Z" fill="white"/>
<path d="M1.42317 6.37061H1.97716V3.39054H3.25706V2.89386H0.143273V3.39054H1.42317V6.37061ZM3.73423 6.37061H4.28821V4.88057H6.74295V4.38389H4.28821V3.39054H6.78115V2.89386H3.72467V4.88057L3.73423 6.37061Z" fill="white"/>
<path d="M11.9376 13.5043C14.6655 13.5043 16.9655 11.2311 16.9655 8.50316H11.9376V9.89386H15.1201C14.612 11.1776 13.4085 12.0869 11.9376 12.0869C9.9585 12.0869 8.48757 10.4822 8.48757 8.50316C8.48757 6.52409 9.9585 4.91944 11.9376 4.91944C12.9539 4.91944 13.8097 5.3206 14.4248 5.98921L15.4945 4.91944C14.612 4.06362 13.4085 3.50199 11.9376 3.50199C9.18292 3.50199 6.88292 5.74851 6.88292 8.50316C6.88292 11.4718 8.96896 13.5043 11.9376 13.5043ZM20.7113 13.5043C21.4067 13.5043 22.0218 13.2636 22.3695 12.8892V13.3706H23.8404V10.5892C23.8404 8.85083 22.5834 7.67409 20.8451 7.67409C19.2404 7.67409 17.8497 8.98456 17.8497 10.5892C17.8497 12.3276 19.0265 13.5043 20.7113 13.5043ZM20.8451 12.1136C19.9892 12.1136 19.3474 11.445 19.3474 10.5892C19.3474 9.70665 19.9892 9.06479 20.8451 9.06479C21.7276 9.06479 22.3427 9.70665 22.3427 10.5892C22.3427 11.445 21.7276 12.1136 20.8451 12.1136ZM25.2864 13.3706H26.784V9.89386C26.784 9.46595 27.0782 9.19851 27.4794 9.19851H27.9073V7.80781H27.3724C26.1689 7.80781 25.2864 8.66363 25.2864 9.89386V13.3706ZM31.8666 13.5043C33.4712 13.5043 34.8619 12.1939 34.8619 10.5892V3.63572H33.3643V8.15549C32.8829 7.80781 32.348 7.67409 31.7864 7.67409C30.2085 7.67409 28.8712 8.98456 28.8712 10.5892C28.8712 12.3276 30.1282 13.5043 31.8666 13.5043ZM31.8666 12.1136C31.0108 12.1136 30.3689 11.445 30.3689 10.5892C30.3689 9.70665 31.0108 9.06479 31.8666 9.06479C32.7492 9.06479 33.3643 9.70665 33.3643 10.5892C33.3643 11.445 32.7492 12.1136 31.8666 12.1136ZM39.1925 13.5043C39.9948 13.5043 40.7169 13.1834 41.2518 12.6485L40.3425 11.7125C39.9414 12.0869 39.6739 12.2206 39.1925 12.2206C38.4437 12.2206 37.8553 11.766 37.6681 11.0973H42.1879V10.5892C42.0809 8.7706 40.9309 7.67409 39.1925 7.67409C37.5879 7.67409 36.1972 8.98456 36.1972 10.5892C36.1972 12.3276 37.4541 13.5043 39.1925 13.5043ZM37.6948 9.94735C37.9088 9.33223 38.4437 8.87758 39.1925 8.87758C39.9681 8.87758 40.503 9.30549 40.7169 9.94735H37.6948ZM43.3857 13.3706H44.8834V10.5892C44.8834 9.70665 45.5253 9.06479 46.3811 9.06479C47.2636 9.06479 47.8787 9.70665 47.8787 10.5892V13.3706H49.3764V10.5892C49.3764 8.85083 48.1462 7.67409 46.4078 7.67409C44.8834 7.67409 43.3857 8.85083 43.3857 10.5892V13.3706Z" fill="white"/>
<path d="M11.2369 26.1724H16.9602C18.6183 26.1724 19.7416 24.8352 19.7416 23.391C19.7416 21.7863 18.6183 20.6096 16.9602 20.6096H14.0183C13.1893 20.6096 12.6276 20.0479 12.6276 19.2189C12.6276 18.3898 13.1893 17.8282 14.0183 17.8282H18.9125V16.4375H13.8579C12.1997 16.4375 11.0765 17.7479 11.0765 19.2189C11.0765 20.8235 12.1997 22.0003 13.8579 22.0003H16.7997C17.6288 22.0003 18.1904 22.5619 18.1904 23.391C18.1904 24.22 17.6288 24.7817 16.7997 24.7817H11.2369V26.1724ZM23.6413 26.3061C24.3367 26.3061 24.9518 26.0654 25.2995 25.691V26.1724H26.7704V23.391C26.7704 21.6526 25.5134 20.4758 23.775 20.4758C22.1704 20.4758 20.7797 21.7863 20.7797 23.391C20.7797 25.1293 21.9564 26.3061 23.6413 26.3061ZM23.775 24.9154C22.9192 24.9154 22.2774 24.2468 22.2774 23.391C22.2774 22.5084 22.9192 21.8665 23.775 21.8665C24.6576 21.8665 25.2727 22.5084 25.2727 23.391C25.2727 24.2468 24.6576 24.9154 23.775 24.9154ZM28.531 26.1724H30.0287V16.4375H28.531V26.1724ZM34.3886 26.3061C35.084 26.3061 35.6991 26.0654 36.0468 25.691V26.1724H37.5177V23.391C37.5177 21.6526 36.2607 20.4758 34.5224 20.4758C32.9177 20.4758 31.527 21.7863 31.527 23.391C31.527 25.1293 32.7037 26.3061 34.3886 26.3061ZM34.5224 24.9154C33.6665 24.9154 33.0247 24.2468 33.0247 23.391C33.0247 22.5084 33.6665 21.8665 34.5224 21.8665C35.4049 21.8665 36.02 22.5084 36.02 23.391C36.02 24.2468 35.4049 24.9154 34.5224 24.9154ZM41.6916 26.3061C43.2962 26.3061 44.6869 24.9956 44.6869 23.391V16.4375H43.1893V20.9572C42.7079 20.6096 42.173 20.4758 41.6113 20.4758C40.0334 20.4758 38.6962 21.7863 38.6962 23.391C38.6962 25.1293 39.9532 26.3061 41.6916 26.3061ZM41.6916 24.9154C40.8358 24.9154 40.1939 24.2468 40.1939 23.391C40.1939 22.5084 40.8358 21.8665 41.6916 21.8665C42.5741 21.8665 43.1893 22.5084 43.1893 23.391C43.1893 24.2468 42.5741 24.9154 41.6916 24.9154Z" fill="#159741"/>
</svg>
